<mxfile host="app.diagrams.net" agent="Mozilla/5.0 (Windows NT 10.0; Win64; x64) AppleWebKit/537.36 (KHTML, like Gecko) Chrome/131.0.0.0 Safari/537.36" version="26.0.4">
  <diagram id="C5RBs43oDa-KdzZeNtuy" name="Page-1">
    <mxGraphModel dx="1665" dy="2066" grid="1" gridSize="10" guides="1" tooltips="1" connect="1" arrows="1" fold="1" page="1" pageScale="1" pageWidth="827" pageHeight="1169" math="0" shadow="0">
      <root>
        <mxCell id="WIyWlLk6GJQsqaUBKTNV-0" />
        <mxCell id="WIyWlLk6GJQsqaUBKTNV-1" parent="WIyWlLk6GJQsqaUBKTNV-0" />
        <mxCell id="2I8wKv11GM0MQBxy5YEE-51" style="edgeStyle=orthogonalEdgeStyle;rounded=0;orthogonalLoop=1;jettySize=auto;html=1;endArrow=none;endFill=0;" edge="1" parent="WIyWlLk6GJQsqaUBKTNV-1" source="2I8wKv11GM0MQBxy5YEE-16" target="2I8wKv11GM0MQBxy5YEE-17">
          <mxGeometry relative="1" as="geometry">
            <Array as="points">
              <mxPoint x="390" y="510" />
            </Array>
          </mxGeometry>
        </mxCell>
        <mxCell id="2I8wKv11GM0MQBxy5YEE-68" style="edgeStyle=orthogonalEdgeStyle;rounded=0;orthogonalLoop=1;jettySize=auto;html=1;endArrow=none;endFill=0;" edge="1" parent="WIyWlLk6GJQsqaUBKTNV-1" source="2I8wKv11GM0MQBxy5YEE-74" target="2I8wKv11GM0MQBxy5YEE-67">
          <mxGeometry relative="1" as="geometry" />
        </mxCell>
        <mxCell id="2I8wKv11GM0MQBxy5YEE-179" value="&lt;span style=&quot;font-size: 17px;&quot;&gt;1&lt;/span&gt;" style="edgeLabel;html=1;align=center;verticalAlign=middle;resizable=0;points=[];" vertex="1" connectable="0" parent="2I8wKv11GM0MQBxy5YEE-68">
          <mxGeometry x="-0.0581" y="-2" relative="1" as="geometry">
            <mxPoint x="-2" as="offset" />
          </mxGeometry>
        </mxCell>
        <mxCell id="2I8wKv11GM0MQBxy5YEE-75" value="" style="edgeStyle=orthogonalEdgeStyle;rounded=0;orthogonalLoop=1;jettySize=auto;html=1;endArrow=none;endFill=0;" edge="1" parent="WIyWlLk6GJQsqaUBKTNV-1" source="2I8wKv11GM0MQBxy5YEE-79">
          <mxGeometry relative="1" as="geometry">
            <mxPoint x="480" y="650" as="targetPoint" />
          </mxGeometry>
        </mxCell>
        <mxCell id="2I8wKv11GM0MQBxy5YEE-101" value="" style="edgeStyle=orthogonalEdgeStyle;rounded=0;orthogonalLoop=1;jettySize=auto;html=1;endArrow=none;endFill=0;" edge="1" parent="WIyWlLk6GJQsqaUBKTNV-1" source="2I8wKv11GM0MQBxy5YEE-16" target="2I8wKv11GM0MQBxy5YEE-19">
          <mxGeometry relative="1" as="geometry">
            <Array as="points">
              <mxPoint x="570" y="510" />
            </Array>
          </mxGeometry>
        </mxCell>
        <mxCell id="2I8wKv11GM0MQBxy5YEE-215" value="" style="edgeStyle=orthogonalEdgeStyle;rounded=0;orthogonalLoop=1;jettySize=auto;html=1;endArrow=none;endFill=0;" edge="1" parent="WIyWlLk6GJQsqaUBKTNV-1" source="2I8wKv11GM0MQBxy5YEE-16" target="2I8wKv11GM0MQBxy5YEE-213">
          <mxGeometry relative="1" as="geometry" />
        </mxCell>
        <mxCell id="2I8wKv11GM0MQBxy5YEE-217" value="&lt;span style=&quot;font-size: 17px;&quot;&gt;N&lt;/span&gt;" style="edgeLabel;html=1;align=center;verticalAlign=middle;resizable=0;points=[];" vertex="1" connectable="0" parent="2I8wKv11GM0MQBxy5YEE-215">
          <mxGeometry x="0.049" y="1" relative="1" as="geometry">
            <mxPoint as="offset" />
          </mxGeometry>
        </mxCell>
        <mxCell id="2I8wKv11GM0MQBxy5YEE-249" style="edgeStyle=orthogonalEdgeStyle;rounded=0;orthogonalLoop=1;jettySize=auto;html=1;exitX=1;exitY=0.25;exitDx=0;exitDy=0;endArrow=none;endFill=0;" edge="1" parent="WIyWlLk6GJQsqaUBKTNV-1" source="2I8wKv11GM0MQBxy5YEE-16">
          <mxGeometry relative="1" as="geometry">
            <mxPoint x="600" y="280" as="targetPoint" />
          </mxGeometry>
        </mxCell>
        <mxCell id="2I8wKv11GM0MQBxy5YEE-258" value="&lt;span style=&quot;font-size: 17px;&quot;&gt;N&lt;/span&gt;" style="edgeLabel;html=1;align=center;verticalAlign=middle;resizable=0;points=[];" vertex="1" connectable="0" parent="2I8wKv11GM0MQBxy5YEE-249">
          <mxGeometry x="0.1809" relative="1" as="geometry">
            <mxPoint as="offset" />
          </mxGeometry>
        </mxCell>
        <mxCell id="2I8wKv11GM0MQBxy5YEE-285" style="edgeStyle=orthogonalEdgeStyle;rounded=0;orthogonalLoop=1;jettySize=auto;html=1;exitX=0;exitY=0.25;exitDx=0;exitDy=0;entryX=0.5;entryY=1;entryDx=0;entryDy=0;endArrow=none;endFill=0;" edge="1" parent="WIyWlLk6GJQsqaUBKTNV-1" source="2I8wKv11GM0MQBxy5YEE-16" target="2I8wKv11GM0MQBxy5YEE-286">
          <mxGeometry relative="1" as="geometry">
            <mxPoint x="340" y="400" as="targetPoint" />
          </mxGeometry>
        </mxCell>
        <mxCell id="2I8wKv11GM0MQBxy5YEE-297" value="&lt;span style=&quot;font-size: 17px;&quot;&gt;N&lt;/span&gt;" style="edgeLabel;html=1;align=center;verticalAlign=middle;resizable=0;points=[];" vertex="1" connectable="0" parent="2I8wKv11GM0MQBxy5YEE-285">
          <mxGeometry x="0.5349" y="1" relative="1" as="geometry">
            <mxPoint as="offset" />
          </mxGeometry>
        </mxCell>
        <mxCell id="2I8wKv11GM0MQBxy5YEE-16" value="&lt;font style=&quot;font-size: 15px;&quot;&gt;Produk/Kelas&lt;/font&gt;" style="rounded=0;whiteSpace=wrap;html=1;" vertex="1" parent="WIyWlLk6GJQsqaUBKTNV-1">
          <mxGeometry x="420" y="460" width="120" height="60" as="geometry" />
        </mxCell>
        <mxCell id="2I8wKv11GM0MQBxy5YEE-17" value="&lt;font style=&quot;font-size: 15px;&quot;&gt;Name&lt;/font&gt;" style="rounded=1;whiteSpace=wrap;html=1;" vertex="1" parent="WIyWlLk6GJQsqaUBKTNV-1">
          <mxGeometry x="340" y="530" width="100" height="40" as="geometry" />
        </mxCell>
        <mxCell id="2I8wKv11GM0MQBxy5YEE-19" value="&lt;font style=&quot;font-size: 15px;&quot;&gt;ID&lt;/font&gt;" style="rounded=1;whiteSpace=wrap;html=1;" vertex="1" parent="WIyWlLk6GJQsqaUBKTNV-1">
          <mxGeometry x="520" y="530" width="100" height="40" as="geometry" />
        </mxCell>
        <mxCell id="2I8wKv11GM0MQBxy5YEE-124" style="edgeStyle=orthogonalEdgeStyle;rounded=0;orthogonalLoop=1;jettySize=auto;html=1;exitX=1;exitY=0.75;exitDx=0;exitDy=0;entryX=0.5;entryY=0;entryDx=0;entryDy=0;endArrow=none;endFill=0;" edge="1" parent="WIyWlLk6GJQsqaUBKTNV-1" source="2I8wKv11GM0MQBxy5YEE-20" target="2I8wKv11GM0MQBxy5YEE-30">
          <mxGeometry relative="1" as="geometry">
            <mxPoint x="580" y="825.1025641025642" as="targetPoint" />
          </mxGeometry>
        </mxCell>
        <mxCell id="2I8wKv11GM0MQBxy5YEE-125" style="edgeStyle=orthogonalEdgeStyle;rounded=0;orthogonalLoop=1;jettySize=auto;html=1;exitX=0;exitY=0.75;exitDx=0;exitDy=0;entryX=0.5;entryY=0;entryDx=0;entryDy=0;endArrow=none;endFill=0;" edge="1" parent="WIyWlLk6GJQsqaUBKTNV-1" source="2I8wKv11GM0MQBxy5YEE-20" target="2I8wKv11GM0MQBxy5YEE-24">
          <mxGeometry relative="1" as="geometry">
            <mxPoint x="380" y="825.1025641025642" as="targetPoint" />
          </mxGeometry>
        </mxCell>
        <mxCell id="2I8wKv11GM0MQBxy5YEE-127" style="edgeStyle=orthogonalEdgeStyle;rounded=0;orthogonalLoop=1;jettySize=auto;html=1;exitX=1;exitY=0.5;exitDx=0;exitDy=0;endArrow=none;endFill=0;" edge="1" parent="WIyWlLk6GJQsqaUBKTNV-1" source="2I8wKv11GM0MQBxy5YEE-20" target="2I8wKv11GM0MQBxy5YEE-76">
          <mxGeometry relative="1" as="geometry">
            <Array as="points">
              <mxPoint x="560" y="810" />
              <mxPoint x="560" y="810" />
            </Array>
          </mxGeometry>
        </mxCell>
        <mxCell id="2I8wKv11GM0MQBxy5YEE-128" value="&lt;span style=&quot;color: rgba(0, 0, 0, 0); font-family: monospace; font-size: 0px; text-align: start; background-color: rgb(251, 251, 251);&quot;&gt;%3CmxGraphModel%3E%3Croot%3E%3CmxCell%20id%3D%220%22%2F%3E%3CmxCell%20id%3D%221%22%20parent%3D%220%22%2F%3E%3CmxCell%20id%3D%222%22%20value%3D%22%22%20style%3D%22edgeStyle%3DorthogonalEdgeStyle%3Brounded%3D0%3BorthogonalLoop%3D1%3BjettySize%3Dauto%3Bhtml%3D1%3B%22%20edge%3D%221%22%20parent%3D%221%22%3E%3CmxGeometry%20relative%3D%221%22%20as%3D%22geometry%22%3E%3CmxPoint%20x%3D%22690%22%20y%3D%22820%22%20as%3D%22sourcePoint%22%2F%3E%3CmxPoint%20x%3D%22570%22%20y%3D%22860%22%20as%3D%22targetPoint%22%2F%3E%3C%2FmxGeometry%3E%3C%2FmxCell%3E%3C%2Froot%3E%3C%2FmxGraphModel%3E&lt;/span&gt;" style="edgeLabel;html=1;align=center;verticalAlign=middle;resizable=0;points=[];" vertex="1" connectable="0" parent="2I8wKv11GM0MQBxy5YEE-127">
          <mxGeometry x="-0.2133" y="-1" relative="1" as="geometry">
            <mxPoint as="offset" />
          </mxGeometry>
        </mxCell>
        <mxCell id="2I8wKv11GM0MQBxy5YEE-155" value="&lt;span style=&quot;font-size: 17px;&quot;&gt;1&lt;/span&gt;" style="edgeLabel;html=1;align=center;verticalAlign=middle;resizable=0;points=[];" vertex="1" connectable="0" parent="2I8wKv11GM0MQBxy5YEE-127">
          <mxGeometry x="0.1419" y="-2" relative="1" as="geometry">
            <mxPoint as="offset" />
          </mxGeometry>
        </mxCell>
        <mxCell id="2I8wKv11GM0MQBxy5YEE-143" style="edgeStyle=orthogonalEdgeStyle;rounded=0;orthogonalLoop=1;jettySize=auto;html=1;exitX=0.5;exitY=1;exitDx=0;exitDy=0;entryX=0.5;entryY=0;entryDx=0;entryDy=0;endArrow=none;endFill=0;" edge="1" parent="WIyWlLk6GJQsqaUBKTNV-1" source="2I8wKv11GM0MQBxy5YEE-20">
          <mxGeometry relative="1" as="geometry">
            <mxPoint x="480" y="1030" as="targetPoint" />
          </mxGeometry>
        </mxCell>
        <mxCell id="2I8wKv11GM0MQBxy5YEE-147" value="&lt;span style=&quot;font-size: 17px;&quot;&gt;1&lt;/span&gt;" style="edgeLabel;html=1;align=center;verticalAlign=middle;resizable=0;points=[];" vertex="1" connectable="0" parent="2I8wKv11GM0MQBxy5YEE-143">
          <mxGeometry x="-0.7378" relative="1" as="geometry">
            <mxPoint as="offset" />
          </mxGeometry>
        </mxCell>
        <mxCell id="2I8wKv11GM0MQBxy5YEE-160" value="&lt;span style=&quot;font-size: 17px;&quot;&gt;N&lt;/span&gt;" style="edgeLabel;html=1;align=center;verticalAlign=middle;resizable=0;points=[];" vertex="1" connectable="0" parent="2I8wKv11GM0MQBxy5YEE-143">
          <mxGeometry x="0.6193" relative="1" as="geometry">
            <mxPoint as="offset" />
          </mxGeometry>
        </mxCell>
        <mxCell id="2I8wKv11GM0MQBxy5YEE-201" value="" style="edgeStyle=orthogonalEdgeStyle;rounded=0;orthogonalLoop=1;jettySize=auto;html=1;endArrow=none;endFill=0;" edge="1" parent="WIyWlLk6GJQsqaUBKTNV-1" source="2I8wKv11GM0MQBxy5YEE-20" target="2I8wKv11GM0MQBxy5YEE-133">
          <mxGeometry relative="1" as="geometry" />
        </mxCell>
        <mxCell id="2I8wKv11GM0MQBxy5YEE-203" value="&lt;span style=&quot;color: rgba(0, 0, 0, 0); font-family: monospace; font-size: 0px; text-align: start; background-color: rgb(251, 251, 251);&quot;&gt;%3CmxGraphModel%3E%3Croot%3E%3CmxCell%20id%3D%220%22%2F%3E%3CmxCell%20id%3D%221%22%20parent%3D%220%22%2F%3E%3CmxCell%20id%3D%222%22%20style%3D%22edgeStyle%3DorthogonalEdgeStyle%3Brounded%3D0%3BorthogonalLoop%3D1%3BjettySize%3Dauto%3Bhtml%3D1%3BexitX%3D1%3BexitY%3D0.5%3BexitDx%3D0%3BexitDy%3D0%3BentryX%3D0%3BentryY%3D0.5%3BentryDx%3D0%3BentryDy%3D0%3BendArrow%3Dnone%3BendFill%3D0%3B%22%20edge%3D%221%22%20parent%3D%221%22%3E%3CmxGeometry%20relative%3D%221%22%20as%3D%22geometry%22%3E%3CmxPoint%20x%3D%22190%22%20y%3D%22810%22%20as%3D%22sourcePoint%22%2F%3E%3CmxPoint%20x%3D%22420%22%20y%3D%22810%22%20as%3D%22targetPoint%22%2F%3E%3C%2FmxGeometry%3E%3C%2FmxCell%3E%3CmxCell%20id%3D%223%22%20value%3D%22%26lt%3Bspan%20style%3D%26quot%3Bcolor%3A%20rgba(0%2C%200%2C%200%2C%200)%3B%20font-family%3A%20monospace%3B%20font-size%3A%200px%3B%20text-align%3A%20start%3B%20background-color%3A%20rgb(251%2C%20251%2C%20251)%3B%26quot%3B%26gt%3B%253CmxGraphModel%253E%253Croot%253E%253CmxCell%2520id%253D%25220%2522%252F%253E%253CmxCell%2520id%253D%25221%2522%2520parent%253D%25220%2522%252F%253E%253CmxCell%2520id%253D%25222%2522%2520style%253D%2522edgeStyle%253DorthogonalEdgeStyle%253Brounded%253D0%253BorthogonalLoop%253D1%253BjettySize%253Dauto%253Bhtml%253D1%253BexitX%253D0.75%253BexitY%253D1%253BexitDx%253D0%253BexitDy%253D0%253B%2522%2520edge%253D%25221%2522%2520parent%253D%25221%2522%253E%253CmxGeometry%2520relative%253D%25221%2522%2520as%253D%2522geometry%2522%253E%253CmxPoint%2520x%253D%2522170%2522%2520y%253D%2522930%2522%2520as%253D%2522targetPoint%2522%252F%253E%253CmxPoint%2520x%253D%2522160%2522%2520y%253D%2522860%2522%2520as%253D%2522sourcePoint%2522%252F%253E%253C%252FmxGeometry%253E%253C%252FmxCell%253E%253C%252Froot%253E%253C%252FmxGraphModel%253E%26lt%3B%2Fspan%26gt%3B%22%20style%3D%22edgeLabel%3Bhtml%3D1%3Balign%3Dcenter%3BverticalAlign%3Dmiddle%3Bresizable%3D0%3Bpoints%3D%5B%5D%3B%22%20vertex%3D%221%22%20connectable%3D%220%22%20parent%3D%222%22%3E%3CmxGeometry%20x%3D%220.6372%22%20y%3D%22-1%22%20relative%3D%221%22%20as%3D%22geometry%22%3E%3CmxPoint%20as%3D%22offset%22%2F%3E%3C%2FmxGeometry%3E%3C%2FmxCell%3E%3CmxCell%20id%3D%224%22%20value%3D%22%26lt%3Bspan%20style%3D%26quot%3Bfont-size%3A%2017px%3B%26quot%3B%26gt%3B1%26lt%3B%2Fspan%26gt%3B%22%20style%3D%22edgeLabel%3Bhtml%3D1%3Balign%3Dcenter%3BverticalAlign%3Dmiddle%3Bresizable%3D0%3Bpoints%3D%5B%5D%3B%22%20vertex%3D%221%22%20connectable%3D%220%22%20parent%3D%222%22%3E%3CmxGeometry%20x%3D%220.5959%22%20relative%3D%221%22%20as%3D%22geometry%22%3E%3CmxPoint%20as%3D%22offset%22%2F%3E%3C%2FmxGeometry%3E%3C%2FmxCell%3E%3CmxCell%20id%3D%225%22%20value%3D%22%26lt%3Bspan%20style%3D%26quot%3Bfont-size%3A%2017px%3B%26quot%3B%26gt%3B1%26lt%3B%2Fspan%26gt%3B%22%20style%3D%22edgeLabel%3Bhtml%3D1%3Balign%3Dcenter%3BverticalAlign%3Dmiddle%3Bresizable%3D0%3Bpoints%3D%5B%5D%3B%22%20vertex%3D%221%22%20connectable%3D%220%22%20parent%3D%222%22%3E%3CmxGeometry%20x%3D%22-0.5986%22%20relative%3D%221%22%20as%3D%22geometry%22%3E%3CmxPoint%20as%3D%22offset%22%2F%3E%3C%2FmxGeometry%3E%3C%2FmxCell%3E%3C%2Froot%3E%3C%2FmxGraphModel%3E&lt;/span&gt;" style="edgeLabel;html=1;align=center;verticalAlign=middle;resizable=0;points=[];" vertex="1" connectable="0" parent="2I8wKv11GM0MQBxy5YEE-201">
          <mxGeometry x="0.0162" y="-3" relative="1" as="geometry">
            <mxPoint as="offset" />
          </mxGeometry>
        </mxCell>
        <mxCell id="2I8wKv11GM0MQBxy5YEE-204" value="&lt;span style=&quot;font-size: 17px;&quot;&gt;1&lt;/span&gt;" style="edgeLabel;html=1;align=center;verticalAlign=middle;resizable=0;points=[];" vertex="1" connectable="0" parent="2I8wKv11GM0MQBxy5YEE-201">
          <mxGeometry x="-0.1051" relative="1" as="geometry">
            <mxPoint as="offset" />
          </mxGeometry>
        </mxCell>
        <mxCell id="2I8wKv11GM0MQBxy5YEE-20" value="&lt;font style=&quot;font-size: 15px;&quot;&gt;Modul Kelas&lt;/font&gt;" style="rounded=0;whiteSpace=wrap;html=1;" vertex="1" parent="WIyWlLk6GJQsqaUBKTNV-1">
          <mxGeometry x="420" y="780" width="120" height="60" as="geometry" />
        </mxCell>
        <mxCell id="2I8wKv11GM0MQBxy5YEE-34" value="" style="edgeStyle=orthogonalEdgeStyle;rounded=0;orthogonalLoop=1;jettySize=auto;html=1;endArrow=none;endFill=0;" edge="1" parent="WIyWlLk6GJQsqaUBKTNV-1" source="2I8wKv11GM0MQBxy5YEE-21" target="2I8wKv11GM0MQBxy5YEE-23">
          <mxGeometry relative="1" as="geometry" />
        </mxCell>
        <mxCell id="2I8wKv11GM0MQBxy5YEE-21" value="&lt;font style=&quot;font-size: 15px;&quot;&gt;Rangkuman&lt;/font&gt;" style="rounded=0;whiteSpace=wrap;html=1;" vertex="1" parent="WIyWlLk6GJQsqaUBKTNV-1">
          <mxGeometry x="80" y="780" width="120" height="60" as="geometry" />
        </mxCell>
        <mxCell id="2I8wKv11GM0MQBxy5YEE-41" style="edgeStyle=orthogonalEdgeStyle;rounded=0;orthogonalLoop=1;jettySize=auto;html=1;endArrow=none;endFill=0;" edge="1" parent="WIyWlLk6GJQsqaUBKTNV-1" source="2I8wKv11GM0MQBxy5YEE-22" target="2I8wKv11GM0MQBxy5YEE-33">
          <mxGeometry relative="1" as="geometry">
            <Array as="points">
              <mxPoint x="930" y="810" />
              <mxPoint x="930" y="810" />
            </Array>
          </mxGeometry>
        </mxCell>
        <mxCell id="2I8wKv11GM0MQBxy5YEE-22" value="&lt;font style=&quot;font-size: 15px;&quot;&gt;Quiz&lt;/font&gt;" style="rounded=0;whiteSpace=wrap;html=1;" vertex="1" parent="WIyWlLk6GJQsqaUBKTNV-1">
          <mxGeometry x="760" y="780" width="120" height="60" as="geometry" />
        </mxCell>
        <mxCell id="2I8wKv11GM0MQBxy5YEE-23" value="&lt;font style=&quot;font-size: 15px;&quot;&gt;ID&lt;/font&gt;" style="rounded=1;whiteSpace=wrap;html=1;" vertex="1" parent="WIyWlLk6GJQsqaUBKTNV-1">
          <mxGeometry x="90" y="720" width="100" height="40" as="geometry" />
        </mxCell>
        <mxCell id="2I8wKv11GM0MQBxy5YEE-24" value="&lt;font style=&quot;font-size: 15px;&quot;&gt;ID&lt;/font&gt;" style="rounded=1;whiteSpace=wrap;html=1;" vertex="1" parent="WIyWlLk6GJQsqaUBKTNV-1">
          <mxGeometry x="340" y="860" width="100" height="40" as="geometry" />
        </mxCell>
        <mxCell id="2I8wKv11GM0MQBxy5YEE-88" value="" style="edgeStyle=orthogonalEdgeStyle;rounded=0;orthogonalLoop=1;jettySize=auto;html=1;endArrow=none;endFill=0;" edge="1" parent="WIyWlLk6GJQsqaUBKTNV-1" source="2I8wKv11GM0MQBxy5YEE-28" target="2I8wKv11GM0MQBxy5YEE-21">
          <mxGeometry relative="1" as="geometry" />
        </mxCell>
        <mxCell id="2I8wKv11GM0MQBxy5YEE-28" value="&lt;font style=&quot;font-size: 15px;&quot;&gt;Modul ID&lt;/font&gt;" style="rounded=1;whiteSpace=wrap;html=1;" vertex="1" parent="WIyWlLk6GJQsqaUBKTNV-1">
          <mxGeometry x="-40" y="790" width="100" height="40" as="geometry" />
        </mxCell>
        <mxCell id="2I8wKv11GM0MQBxy5YEE-30" value="&lt;font style=&quot;font-size: 15px;&quot;&gt;Name&lt;/font&gt;" style="rounded=1;whiteSpace=wrap;html=1;" vertex="1" parent="WIyWlLk6GJQsqaUBKTNV-1">
          <mxGeometry x="520" y="860" width="100" height="40" as="geometry" />
        </mxCell>
        <mxCell id="2I8wKv11GM0MQBxy5YEE-33" value="&lt;font style=&quot;font-size: 15px;&quot;&gt;Modul ID&lt;/font&gt;" style="rounded=1;whiteSpace=wrap;html=1;" vertex="1" parent="WIyWlLk6GJQsqaUBKTNV-1">
          <mxGeometry x="910" y="790" width="100" height="40" as="geometry" />
        </mxCell>
        <mxCell id="2I8wKv11GM0MQBxy5YEE-56" value="" style="edgeStyle=orthogonalEdgeStyle;rounded=0;orthogonalLoop=1;jettySize=auto;html=1;endArrow=none;endFill=0;" edge="1" parent="WIyWlLk6GJQsqaUBKTNV-1" source="2I8wKv11GM0MQBxy5YEE-79" target="2I8wKv11GM0MQBxy5YEE-20">
          <mxGeometry relative="1" as="geometry">
            <Array as="points">
              <mxPoint x="480" y="730" />
              <mxPoint x="480" y="730" />
            </Array>
          </mxGeometry>
        </mxCell>
        <mxCell id="2I8wKv11GM0MQBxy5YEE-84" value="&lt;span style=&quot;font-size: 17px;&quot;&gt;N&lt;/span&gt;" style="edgeLabel;html=1;align=center;verticalAlign=middle;resizable=0;points=[];" vertex="1" connectable="0" parent="2I8wKv11GM0MQBxy5YEE-56">
          <mxGeometry x="-0.192" relative="1" as="geometry">
            <mxPoint as="offset" />
          </mxGeometry>
        </mxCell>
        <mxCell id="2I8wKv11GM0MQBxy5YEE-109" value="" style="edgeStyle=orthogonalEdgeStyle;rounded=0;orthogonalLoop=1;jettySize=auto;html=1;endArrow=none;endFill=0;" edge="1" parent="WIyWlLk6GJQsqaUBKTNV-1" source="2I8wKv11GM0MQBxy5YEE-59" target="2I8wKv11GM0MQBxy5YEE-22">
          <mxGeometry relative="1" as="geometry" />
        </mxCell>
        <mxCell id="2I8wKv11GM0MQBxy5YEE-59" value="&lt;font style=&quot;font-size: 15px;&quot;&gt;ID&lt;/font&gt;" style="rounded=1;whiteSpace=wrap;html=1;" vertex="1" parent="WIyWlLk6GJQsqaUBKTNV-1">
          <mxGeometry x="770" y="710" width="100" height="40" as="geometry" />
        </mxCell>
        <mxCell id="2I8wKv11GM0MQBxy5YEE-72" style="edgeStyle=orthogonalEdgeStyle;rounded=0;orthogonalLoop=1;jettySize=auto;html=1;exitX=1;exitY=0.25;exitDx=0;exitDy=0;entryX=0.5;entryY=1;entryDx=0;entryDy=0;endArrow=none;endFill=0;" edge="1" parent="WIyWlLk6GJQsqaUBKTNV-1">
          <mxGeometry relative="1" as="geometry">
            <mxPoint x="579.9999999999998" y="150" as="targetPoint" />
            <mxPoint x="539.9999999999998" y="185" as="sourcePoint" />
            <Array as="points">
              <mxPoint x="540" y="190" />
              <mxPoint x="580" y="190" />
            </Array>
          </mxGeometry>
        </mxCell>
        <mxCell id="2I8wKv11GM0MQBxy5YEE-73" style="edgeStyle=orthogonalEdgeStyle;rounded=0;orthogonalLoop=1;jettySize=auto;html=1;exitX=0;exitY=0.25;exitDx=0;exitDy=0;entryX=0.5;entryY=1;entryDx=0;entryDy=0;endArrow=none;endFill=0;" edge="1" parent="WIyWlLk6GJQsqaUBKTNV-1" source="2I8wKv11GM0MQBxy5YEE-67" target="2I8wKv11GM0MQBxy5YEE-70">
          <mxGeometry relative="1" as="geometry">
            <mxPoint x="350" y="235" as="targetPoint" />
            <Array as="points">
              <mxPoint x="420" y="190" />
              <mxPoint x="390" y="190" />
            </Array>
          </mxGeometry>
        </mxCell>
        <mxCell id="2I8wKv11GM0MQBxy5YEE-221" value="" style="edgeStyle=orthogonalEdgeStyle;rounded=0;orthogonalLoop=1;jettySize=auto;html=1;endArrow=none;endFill=0;" edge="1" parent="WIyWlLk6GJQsqaUBKTNV-1" source="2I8wKv11GM0MQBxy5YEE-67" target="2I8wKv11GM0MQBxy5YEE-220">
          <mxGeometry relative="1" as="geometry" />
        </mxCell>
        <mxCell id="2I8wKv11GM0MQBxy5YEE-223" value="&lt;span style=&quot;font-size: 17px;&quot;&gt;1&lt;/span&gt;" style="edgeLabel;html=1;align=center;verticalAlign=middle;resizable=0;points=[];" vertex="1" connectable="0" parent="2I8wKv11GM0MQBxy5YEE-221">
          <mxGeometry x="-0.0436" y="1" relative="1" as="geometry">
            <mxPoint as="offset" />
          </mxGeometry>
        </mxCell>
        <mxCell id="2I8wKv11GM0MQBxy5YEE-67" value="&lt;font style=&quot;font-size: 15px;&quot;&gt;Kelas Saya&lt;/font&gt;" style="rounded=0;whiteSpace=wrap;html=1;" vertex="1" parent="WIyWlLk6GJQsqaUBKTNV-1">
          <mxGeometry x="420" y="180" width="120" height="60" as="geometry" />
        </mxCell>
        <mxCell id="2I8wKv11GM0MQBxy5YEE-69" value="&lt;span style=&quot;font-size: 15px;&quot;&gt;ID&lt;/span&gt;" style="rounded=1;whiteSpace=wrap;html=1;" vertex="1" parent="WIyWlLk6GJQsqaUBKTNV-1">
          <mxGeometry x="530" y="120" width="100" height="40" as="geometry" />
        </mxCell>
        <mxCell id="2I8wKv11GM0MQBxy5YEE-70" value="&lt;font style=&quot;font-size: 15px;&quot;&gt;User ID&lt;/font&gt;" style="rounded=1;whiteSpace=wrap;html=1;" vertex="1" parent="WIyWlLk6GJQsqaUBKTNV-1">
          <mxGeometry x="340" y="120" width="100" height="40" as="geometry" />
        </mxCell>
        <mxCell id="2I8wKv11GM0MQBxy5YEE-198" value="" style="edgeStyle=orthogonalEdgeStyle;rounded=0;orthogonalLoop=1;jettySize=auto;html=1;endArrow=none;endFill=0;" edge="1" parent="WIyWlLk6GJQsqaUBKTNV-1" source="2I8wKv11GM0MQBxy5YEE-76" target="2I8wKv11GM0MQBxy5YEE-22">
          <mxGeometry relative="1" as="geometry" />
        </mxCell>
        <mxCell id="2I8wKv11GM0MQBxy5YEE-199" value="&lt;span style=&quot;font-size: 17px;&quot;&gt;1&lt;/span&gt;" style="edgeLabel;html=1;align=center;verticalAlign=middle;resizable=0;points=[];" vertex="1" connectable="0" parent="2I8wKv11GM0MQBxy5YEE-198">
          <mxGeometry x="0.0312" y="-2" relative="1" as="geometry">
            <mxPoint as="offset" />
          </mxGeometry>
        </mxCell>
        <mxCell id="2I8wKv11GM0MQBxy5YEE-76" value="has" style="rhombus;whiteSpace=wrap;html=1;" vertex="1" parent="WIyWlLk6GJQsqaUBKTNV-1">
          <mxGeometry x="630" y="780" width="60" height="60" as="geometry" />
        </mxCell>
        <mxCell id="2I8wKv11GM0MQBxy5YEE-202" value="" style="edgeStyle=orthogonalEdgeStyle;rounded=0;orthogonalLoop=1;jettySize=auto;html=1;endArrow=none;endFill=0;" edge="1" parent="WIyWlLk6GJQsqaUBKTNV-1" source="2I8wKv11GM0MQBxy5YEE-133" target="2I8wKv11GM0MQBxy5YEE-21">
          <mxGeometry relative="1" as="geometry" />
        </mxCell>
        <mxCell id="2I8wKv11GM0MQBxy5YEE-205" value="&lt;span style=&quot;font-size: 17px;&quot;&gt;1&lt;/span&gt;" style="edgeLabel;html=1;align=center;verticalAlign=middle;resizable=0;points=[];" vertex="1" connectable="0" parent="2I8wKv11GM0MQBxy5YEE-202">
          <mxGeometry x="-0.1351" y="1" relative="1" as="geometry">
            <mxPoint as="offset" />
          </mxGeometry>
        </mxCell>
        <mxCell id="2I8wKv11GM0MQBxy5YEE-133" value="has" style="rhombus;whiteSpace=wrap;html=1;" vertex="1" parent="WIyWlLk6GJQsqaUBKTNV-1">
          <mxGeometry x="270" y="780" width="60" height="60" as="geometry" />
        </mxCell>
        <mxCell id="2I8wKv11GM0MQBxy5YEE-165" value="" style="edgeStyle=orthogonalEdgeStyle;rounded=0;orthogonalLoop=1;jettySize=auto;html=1;endArrow=none;endFill=0;" edge="1" parent="WIyWlLk6GJQsqaUBKTNV-1" source="2I8wKv11GM0MQBxy5YEE-144" target="2I8wKv11GM0MQBxy5YEE-163">
          <mxGeometry relative="1" as="geometry" />
        </mxCell>
        <mxCell id="2I8wKv11GM0MQBxy5YEE-144" value="&lt;font style=&quot;font-size: 15px;&quot;&gt;ID&lt;/font&gt;" style="rounded=1;whiteSpace=wrap;html=1;" vertex="1" parent="WIyWlLk6GJQsqaUBKTNV-1">
          <mxGeometry x="430" y="1110" width="100" height="40" as="geometry" />
        </mxCell>
        <mxCell id="2I8wKv11GM0MQBxy5YEE-146" value="has" style="rhombus;whiteSpace=wrap;html=1;" vertex="1" parent="WIyWlLk6GJQsqaUBKTNV-1">
          <mxGeometry x="450" y="900" width="60" height="60" as="geometry" />
        </mxCell>
        <mxCell id="2I8wKv11GM0MQBxy5YEE-166" value="" style="edgeStyle=orthogonalEdgeStyle;rounded=0;orthogonalLoop=1;jettySize=auto;html=1;endArrow=none;endFill=0;" edge="1" parent="WIyWlLk6GJQsqaUBKTNV-1" source="2I8wKv11GM0MQBxy5YEE-150" target="2I8wKv11GM0MQBxy5YEE-163">
          <mxGeometry relative="1" as="geometry" />
        </mxCell>
        <mxCell id="2I8wKv11GM0MQBxy5YEE-150" value="&lt;font style=&quot;font-size: 15px;&quot;&gt;Modul ID&lt;/font&gt;" style="rounded=1;whiteSpace=wrap;html=1;" vertex="1" parent="WIyWlLk6GJQsqaUBKTNV-1">
          <mxGeometry x="580" y="1040" width="100" height="40" as="geometry" />
        </mxCell>
        <mxCell id="2I8wKv11GM0MQBxy5YEE-163" value="&lt;font style=&quot;font-size: 15px;&quot;&gt;Video&lt;/font&gt;" style="rounded=0;whiteSpace=wrap;html=1;" vertex="1" parent="WIyWlLk6GJQsqaUBKTNV-1">
          <mxGeometry x="420" y="1030" width="120" height="60" as="geometry" />
        </mxCell>
        <mxCell id="2I8wKv11GM0MQBxy5YEE-170" value="" style="edgeStyle=orthogonalEdgeStyle;rounded=0;orthogonalLoop=1;jettySize=auto;html=1;endArrow=none;endFill=0;" edge="1" parent="WIyWlLk6GJQsqaUBKTNV-1" source="2I8wKv11GM0MQBxy5YEE-169" target="2I8wKv11GM0MQBxy5YEE-21">
          <mxGeometry relative="1" as="geometry" />
        </mxCell>
        <mxCell id="2I8wKv11GM0MQBxy5YEE-169" value="&lt;font style=&quot;font-size: 15px;&quot;&gt;Name&lt;/font&gt;" style="rounded=1;whiteSpace=wrap;html=1;" vertex="1" parent="WIyWlLk6GJQsqaUBKTNV-1">
          <mxGeometry x="90" y="860" width="100" height="40" as="geometry" />
        </mxCell>
        <mxCell id="2I8wKv11GM0MQBxy5YEE-172" value="" style="edgeStyle=orthogonalEdgeStyle;rounded=0;orthogonalLoop=1;jettySize=auto;html=1;endArrow=none;endFill=0;" edge="1" parent="WIyWlLk6GJQsqaUBKTNV-1" source="2I8wKv11GM0MQBxy5YEE-171" target="2I8wKv11GM0MQBxy5YEE-22">
          <mxGeometry relative="1" as="geometry" />
        </mxCell>
        <mxCell id="2I8wKv11GM0MQBxy5YEE-171" value="&lt;font style=&quot;font-size: 15px;&quot;&gt;Name&lt;/font&gt;" style="rounded=1;whiteSpace=wrap;html=1;" vertex="1" parent="WIyWlLk6GJQsqaUBKTNV-1">
          <mxGeometry x="770" y="870" width="100" height="40" as="geometry" />
        </mxCell>
        <mxCell id="2I8wKv11GM0MQBxy5YEE-174" value="" style="edgeStyle=orthogonalEdgeStyle;rounded=0;orthogonalLoop=1;jettySize=auto;html=1;endArrow=none;endFill=0;" edge="1" parent="WIyWlLk6GJQsqaUBKTNV-1" source="2I8wKv11GM0MQBxy5YEE-173" target="2I8wKv11GM0MQBxy5YEE-163">
          <mxGeometry relative="1" as="geometry" />
        </mxCell>
        <mxCell id="2I8wKv11GM0MQBxy5YEE-173" value="&lt;font style=&quot;font-size: 15px;&quot;&gt;Name&lt;/font&gt;" style="rounded=1;whiteSpace=wrap;html=1;" vertex="1" parent="WIyWlLk6GJQsqaUBKTNV-1">
          <mxGeometry x="280" y="1040" width="100" height="40" as="geometry" />
        </mxCell>
        <mxCell id="2I8wKv11GM0MQBxy5YEE-175" value="" style="edgeStyle=orthogonalEdgeStyle;rounded=0;orthogonalLoop=1;jettySize=auto;html=1;endArrow=none;endFill=0;" edge="1" parent="WIyWlLk6GJQsqaUBKTNV-1" source="2I8wKv11GM0MQBxy5YEE-16" target="2I8wKv11GM0MQBxy5YEE-74">
          <mxGeometry relative="1" as="geometry">
            <mxPoint x="480" y="440" as="sourcePoint" />
            <mxPoint x="480" y="240" as="targetPoint" />
          </mxGeometry>
        </mxCell>
        <mxCell id="2I8wKv11GM0MQBxy5YEE-180" value="&lt;span style=&quot;font-size: 17px;&quot;&gt;N&lt;/span&gt;" style="edgeLabel;html=1;align=center;verticalAlign=middle;resizable=0;points=[];" vertex="1" connectable="0" parent="2I8wKv11GM0MQBxy5YEE-175">
          <mxGeometry x="0.1133" y="1" relative="1" as="geometry">
            <mxPoint as="offset" />
          </mxGeometry>
        </mxCell>
        <mxCell id="2I8wKv11GM0MQBxy5YEE-74" value="has" style="rhombus;whiteSpace=wrap;html=1;" vertex="1" parent="WIyWlLk6GJQsqaUBKTNV-1">
          <mxGeometry x="450" y="310" width="60" height="60" as="geometry" />
        </mxCell>
        <mxCell id="2I8wKv11GM0MQBxy5YEE-184" style="edgeStyle=orthogonalEdgeStyle;rounded=0;orthogonalLoop=1;jettySize=auto;html=1;entryX=1;entryY=0.5;entryDx=0;entryDy=0;endArrow=none;endFill=0;" edge="1" parent="WIyWlLk6GJQsqaUBKTNV-1" source="2I8wKv11GM0MQBxy5YEE-194" target="2I8wKv11GM0MQBxy5YEE-16">
          <mxGeometry relative="1" as="geometry">
            <Array as="points">
              <mxPoint x="620" y="490" />
              <mxPoint x="620" y="490" />
            </Array>
          </mxGeometry>
        </mxCell>
        <mxCell id="2I8wKv11GM0MQBxy5YEE-195" value="&lt;span style=&quot;color: rgba(0, 0, 0, 0); font-family: monospace; font-size: 0px; text-align: start; background-color: rgb(251, 251, 251);&quot;&gt;%3CmxGraphModel%3E%3Croot%3E%3CmxCell%20id%3D%220%22%2F%3E%3CmxCell%20id%3D%221%22%20parent%3D%220%22%2F%3E%3CmxCell%20id%3D%222%22%20value%3D%22has%22%20style%3D%22rhombus%3BwhiteSpace%3Dwrap%3Bhtml%3D1%3B%22%20vertex%3D%221%22%20parent%3D%221%22%3E%3CmxGeometry%20x%3D%22450%22%20y%3D%22310%22%20width%3D%2260%22%20height%3D%2260%22%20as%3D%22geometry%22%2F%3E%3C%2FmxCell%3E%3C%2Froot%3E%3C%2FmxGraphModel%3EN&lt;/span&gt;" style="edgeLabel;html=1;align=center;verticalAlign=middle;resizable=0;points=[];" vertex="1" connectable="0" parent="2I8wKv11GM0MQBxy5YEE-184">
          <mxGeometry x="0.4641" relative="1" as="geometry">
            <mxPoint as="offset" />
          </mxGeometry>
        </mxCell>
        <mxCell id="2I8wKv11GM0MQBxy5YEE-216" value="&lt;span style=&quot;font-size: 17px;&quot;&gt;N&lt;/span&gt;" style="edgeLabel;html=1;align=center;verticalAlign=middle;resizable=0;points=[];" vertex="1" connectable="0" parent="2I8wKv11GM0MQBxy5YEE-184">
          <mxGeometry x="-0.196" y="1" relative="1" as="geometry">
            <mxPoint as="offset" />
          </mxGeometry>
        </mxCell>
        <mxCell id="2I8wKv11GM0MQBxy5YEE-192" value="" style="edgeStyle=orthogonalEdgeStyle;rounded=0;orthogonalLoop=1;jettySize=auto;html=1;endArrow=none;endFill=0;" edge="1" parent="WIyWlLk6GJQsqaUBKTNV-1" source="2I8wKv11GM0MQBxy5YEE-183" target="2I8wKv11GM0MQBxy5YEE-187">
          <mxGeometry relative="1" as="geometry" />
        </mxCell>
        <mxCell id="2I8wKv11GM0MQBxy5YEE-241" value="" style="edgeStyle=orthogonalEdgeStyle;rounded=0;orthogonalLoop=1;jettySize=auto;html=1;endArrow=none;endFill=0;" edge="1" parent="WIyWlLk6GJQsqaUBKTNV-1" source="2I8wKv11GM0MQBxy5YEE-183" target="2I8wKv11GM0MQBxy5YEE-240">
          <mxGeometry relative="1" as="geometry" />
        </mxCell>
        <mxCell id="2I8wKv11GM0MQBxy5YEE-242" style="edgeStyle=orthogonalEdgeStyle;rounded=0;orthogonalLoop=1;jettySize=auto;html=1;exitX=0.75;exitY=1;exitDx=0;exitDy=0;entryX=0;entryY=0.5;entryDx=0;entryDy=0;endArrow=none;endFill=0;" edge="1" parent="WIyWlLk6GJQsqaUBKTNV-1" source="2I8wKv11GM0MQBxy5YEE-183" target="2I8wKv11GM0MQBxy5YEE-239">
          <mxGeometry relative="1" as="geometry" />
        </mxCell>
        <mxCell id="2I8wKv11GM0MQBxy5YEE-243" style="edgeStyle=orthogonalEdgeStyle;rounded=0;orthogonalLoop=1;jettySize=auto;html=1;exitX=0.75;exitY=0;exitDx=0;exitDy=0;entryX=0;entryY=0.5;entryDx=0;entryDy=0;endArrow=none;endFill=0;" edge="1" parent="WIyWlLk6GJQsqaUBKTNV-1" source="2I8wKv11GM0MQBxy5YEE-183" target="2I8wKv11GM0MQBxy5YEE-238">
          <mxGeometry relative="1" as="geometry" />
        </mxCell>
        <mxCell id="2I8wKv11GM0MQBxy5YEE-183" value="&lt;font style=&quot;font-size: 15px;&quot;&gt;Tutor&lt;/font&gt;" style="rounded=0;whiteSpace=wrap;html=1;" vertex="1" parent="WIyWlLk6GJQsqaUBKTNV-1">
          <mxGeometry x="760" y="460" width="120" height="60" as="geometry" />
        </mxCell>
        <mxCell id="2I8wKv11GM0MQBxy5YEE-186" value="" style="edgeStyle=orthogonalEdgeStyle;rounded=0;orthogonalLoop=1;jettySize=auto;html=1;endArrow=none;endFill=0;" edge="1" parent="WIyWlLk6GJQsqaUBKTNV-1" source="2I8wKv11GM0MQBxy5YEE-185" target="2I8wKv11GM0MQBxy5YEE-183">
          <mxGeometry relative="1" as="geometry" />
        </mxCell>
        <mxCell id="2I8wKv11GM0MQBxy5YEE-185" value="&lt;font style=&quot;font-size: 15px;&quot;&gt;Name&lt;/font&gt;" style="rounded=1;whiteSpace=wrap;html=1;" vertex="1" parent="WIyWlLk6GJQsqaUBKTNV-1">
          <mxGeometry x="770" y="380" width="100" height="40" as="geometry" />
        </mxCell>
        <mxCell id="2I8wKv11GM0MQBxy5YEE-187" value="&lt;font style=&quot;font-size: 15px;&quot;&gt;ID&lt;/font&gt;" style="rounded=1;whiteSpace=wrap;html=1;" vertex="1" parent="WIyWlLk6GJQsqaUBKTNV-1">
          <mxGeometry x="770" y="560" width="100" height="40" as="geometry" />
        </mxCell>
        <mxCell id="2I8wKv11GM0MQBxy5YEE-206" value="" style="edgeStyle=orthogonalEdgeStyle;rounded=0;orthogonalLoop=1;jettySize=auto;html=1;endArrow=none;endFill=0;" edge="1" parent="WIyWlLk6GJQsqaUBKTNV-1" source="2I8wKv11GM0MQBxy5YEE-16" target="2I8wKv11GM0MQBxy5YEE-79">
          <mxGeometry relative="1" as="geometry">
            <mxPoint x="480" y="500" as="sourcePoint" />
            <mxPoint x="480" y="650" as="targetPoint" />
          </mxGeometry>
        </mxCell>
        <mxCell id="2I8wKv11GM0MQBxy5YEE-207" value="&lt;span style=&quot;font-size: 17px;&quot;&gt;1&lt;/span&gt;" style="edgeLabel;html=1;align=center;verticalAlign=middle;resizable=0;points=[];" vertex="1" connectable="0" parent="2I8wKv11GM0MQBxy5YEE-206">
          <mxGeometry x="-0.0656" relative="1" as="geometry">
            <mxPoint as="offset" />
          </mxGeometry>
        </mxCell>
        <mxCell id="2I8wKv11GM0MQBxy5YEE-79" value="has" style="rhombus;whiteSpace=wrap;html=1;" vertex="1" parent="WIyWlLk6GJQsqaUBKTNV-1">
          <mxGeometry x="450" y="610" width="60" height="60" as="geometry" />
        </mxCell>
        <mxCell id="2I8wKv11GM0MQBxy5YEE-214" value="" style="edgeStyle=orthogonalEdgeStyle;rounded=0;orthogonalLoop=1;jettySize=auto;html=1;endArrow=none;endFill=0;" edge="1" parent="WIyWlLk6GJQsqaUBKTNV-1" source="2I8wKv11GM0MQBxy5YEE-208" target="2I8wKv11GM0MQBxy5YEE-213">
          <mxGeometry relative="1" as="geometry" />
        </mxCell>
        <mxCell id="2I8wKv11GM0MQBxy5YEE-218" value="&lt;span style=&quot;font-size: 17px;&quot;&gt;N&lt;/span&gt;" style="edgeLabel;html=1;align=center;verticalAlign=middle;resizable=0;points=[];" vertex="1" connectable="0" parent="2I8wKv11GM0MQBxy5YEE-214">
          <mxGeometry x="0.0601" relative="1" as="geometry">
            <mxPoint as="offset" />
          </mxGeometry>
        </mxCell>
        <mxCell id="2I8wKv11GM0MQBxy5YEE-246" value="" style="edgeStyle=orthogonalEdgeStyle;rounded=0;orthogonalLoop=1;jettySize=auto;html=1;endArrow=none;endFill=0;" edge="1" parent="WIyWlLk6GJQsqaUBKTNV-1" source="2I8wKv11GM0MQBxy5YEE-208" target="2I8wKv11GM0MQBxy5YEE-245">
          <mxGeometry relative="1" as="geometry" />
        </mxCell>
        <mxCell id="2I8wKv11GM0MQBxy5YEE-248" value="" style="edgeStyle=orthogonalEdgeStyle;rounded=0;orthogonalLoop=1;jettySize=auto;html=1;endArrow=none;endFill=0;" edge="1" parent="WIyWlLk6GJQsqaUBKTNV-1" source="2I8wKv11GM0MQBxy5YEE-208" target="2I8wKv11GM0MQBxy5YEE-247">
          <mxGeometry relative="1" as="geometry" />
        </mxCell>
        <mxCell id="2I8wKv11GM0MQBxy5YEE-208" value="&lt;font style=&quot;font-size: 15px;&quot;&gt;Kategori Kelas&lt;/font&gt;" style="rounded=0;whiteSpace=wrap;html=1;" vertex="1" parent="WIyWlLk6GJQsqaUBKTNV-1">
          <mxGeometry x="80" y="460" width="120" height="60" as="geometry" />
        </mxCell>
        <mxCell id="2I8wKv11GM0MQBxy5YEE-209" value="" style="edgeStyle=orthogonalEdgeStyle;rounded=0;orthogonalLoop=1;jettySize=auto;html=1;entryX=1;entryY=0.5;entryDx=0;entryDy=0;endArrow=none;endFill=0;" edge="1" parent="WIyWlLk6GJQsqaUBKTNV-1" source="2I8wKv11GM0MQBxy5YEE-183" target="2I8wKv11GM0MQBxy5YEE-194">
          <mxGeometry relative="1" as="geometry">
            <mxPoint x="760" y="470" as="sourcePoint" />
            <mxPoint x="540" y="470" as="targetPoint" />
          </mxGeometry>
        </mxCell>
        <mxCell id="2I8wKv11GM0MQBxy5YEE-244" value="&lt;span style=&quot;font-size: 17px;&quot;&gt;N&lt;/span&gt;" style="edgeLabel;html=1;align=center;verticalAlign=middle;resizable=0;points=[];" vertex="1" connectable="0" parent="2I8wKv11GM0MQBxy5YEE-209">
          <mxGeometry x="-0.0707" y="1" relative="1" as="geometry">
            <mxPoint as="offset" />
          </mxGeometry>
        </mxCell>
        <mxCell id="2I8wKv11GM0MQBxy5YEE-194" value="has" style="rhombus;whiteSpace=wrap;html=1;" vertex="1" parent="WIyWlLk6GJQsqaUBKTNV-1">
          <mxGeometry x="630" y="460" width="60" height="60" as="geometry" />
        </mxCell>
        <mxCell id="2I8wKv11GM0MQBxy5YEE-213" value="has" style="rhombus;whiteSpace=wrap;html=1;" vertex="1" parent="WIyWlLk6GJQsqaUBKTNV-1">
          <mxGeometry x="270" y="460" width="60" height="60" as="geometry" />
        </mxCell>
        <mxCell id="2I8wKv11GM0MQBxy5YEE-230" value="" style="edgeStyle=orthogonalEdgeStyle;rounded=0;orthogonalLoop=1;jettySize=auto;html=1;endArrow=none;endFill=0;" edge="1" parent="WIyWlLk6GJQsqaUBKTNV-1" source="2I8wKv11GM0MQBxy5YEE-219" target="2I8wKv11GM0MQBxy5YEE-229">
          <mxGeometry relative="1" as="geometry" />
        </mxCell>
        <mxCell id="2I8wKv11GM0MQBxy5YEE-234" value="" style="edgeStyle=orthogonalEdgeStyle;rounded=0;orthogonalLoop=1;jettySize=auto;html=1;endArrow=none;endFill=0;" edge="1" parent="WIyWlLk6GJQsqaUBKTNV-1" source="2I8wKv11GM0MQBxy5YEE-219" target="2I8wKv11GM0MQBxy5YEE-233">
          <mxGeometry relative="1" as="geometry" />
        </mxCell>
        <mxCell id="2I8wKv11GM0MQBxy5YEE-237" style="edgeStyle=orthogonalEdgeStyle;rounded=0;orthogonalLoop=1;jettySize=auto;html=1;exitX=0.25;exitY=0;exitDx=0;exitDy=0;entryX=1;entryY=0.5;entryDx=0;entryDy=0;endArrow=none;endFill=0;" edge="1" parent="WIyWlLk6GJQsqaUBKTNV-1" source="2I8wKv11GM0MQBxy5YEE-219" target="2I8wKv11GM0MQBxy5YEE-231">
          <mxGeometry relative="1" as="geometry">
            <mxPoint x="110.40000000000009" y="140" as="targetPoint" />
          </mxGeometry>
        </mxCell>
        <mxCell id="2I8wKv11GM0MQBxy5YEE-253" style="edgeStyle=orthogonalEdgeStyle;rounded=0;orthogonalLoop=1;jettySize=auto;html=1;exitX=1;exitY=0.25;exitDx=0;exitDy=0;endArrow=none;endFill=0;" edge="1" parent="WIyWlLk6GJQsqaUBKTNV-1" source="2I8wKv11GM0MQBxy5YEE-219">
          <mxGeometry relative="1" as="geometry">
            <mxPoint x="240" y="90" as="targetPoint" />
          </mxGeometry>
        </mxCell>
        <mxCell id="2I8wKv11GM0MQBxy5YEE-256" value="&lt;span style=&quot;font-size: 17px;&quot;&gt;1&lt;/span&gt;" style="edgeLabel;html=1;align=center;verticalAlign=middle;resizable=0;points=[];" vertex="1" connectable="0" parent="2I8wKv11GM0MQBxy5YEE-253">
          <mxGeometry x="0.2426" y="-2" relative="1" as="geometry">
            <mxPoint x="-2" y="4" as="offset" />
          </mxGeometry>
        </mxCell>
        <mxCell id="2I8wKv11GM0MQBxy5YEE-290" style="edgeStyle=orthogonalEdgeStyle;rounded=0;orthogonalLoop=1;jettySize=auto;html=1;exitX=0.75;exitY=1;exitDx=0;exitDy=0;entryX=0;entryY=0.5;entryDx=0;entryDy=0;endArrow=none;endFill=0;" edge="1" parent="WIyWlLk6GJQsqaUBKTNV-1" source="2I8wKv11GM0MQBxy5YEE-219" target="2I8wKv11GM0MQBxy5YEE-232">
          <mxGeometry relative="1" as="geometry" />
        </mxCell>
        <mxCell id="2I8wKv11GM0MQBxy5YEE-291" style="edgeStyle=orthogonalEdgeStyle;rounded=0;orthogonalLoop=1;jettySize=auto;html=1;exitX=0.25;exitY=1;exitDx=0;exitDy=0;entryX=1;entryY=0.5;entryDx=0;entryDy=0;endArrow=none;endFill=0;" edge="1" parent="WIyWlLk6GJQsqaUBKTNV-1" source="2I8wKv11GM0MQBxy5YEE-219" target="2I8wKv11GM0MQBxy5YEE-292">
          <mxGeometry relative="1" as="geometry">
            <mxPoint x="109.79999999999995" y="270" as="targetPoint" />
          </mxGeometry>
        </mxCell>
        <mxCell id="2I8wKv11GM0MQBxy5YEE-294" value="&lt;span style=&quot;font-size: 17px;&quot;&gt;1&lt;/span&gt;" style="edgeLabel;html=1;align=center;verticalAlign=middle;resizable=0;points=[];" vertex="1" connectable="0" parent="2I8wKv11GM0MQBxy5YEE-291">
          <mxGeometry x="0.1809" relative="1" as="geometry">
            <mxPoint as="offset" />
          </mxGeometry>
        </mxCell>
        <mxCell id="2I8wKv11GM0MQBxy5YEE-219" value="&lt;font style=&quot;font-size: 15px;&quot;&gt;User&lt;/font&gt;" style="rounded=0;whiteSpace=wrap;html=1;" vertex="1" parent="WIyWlLk6GJQsqaUBKTNV-1">
          <mxGeometry x="80" y="180" width="120" height="60" as="geometry" />
        </mxCell>
        <mxCell id="2I8wKv11GM0MQBxy5YEE-222" value="" style="edgeStyle=orthogonalEdgeStyle;rounded=0;orthogonalLoop=1;jettySize=auto;html=1;endArrow=none;endFill=0;" edge="1" parent="WIyWlLk6GJQsqaUBKTNV-1" source="2I8wKv11GM0MQBxy5YEE-220" target="2I8wKv11GM0MQBxy5YEE-219">
          <mxGeometry relative="1" as="geometry" />
        </mxCell>
        <mxCell id="2I8wKv11GM0MQBxy5YEE-226" value="&lt;span style=&quot;font-size: 17px;&quot;&gt;1&lt;/span&gt;" style="edgeLabel;html=1;align=center;verticalAlign=middle;resizable=0;points=[];" vertex="1" connectable="0" parent="2I8wKv11GM0MQBxy5YEE-222">
          <mxGeometry x="-0.1474" y="-1" relative="1" as="geometry">
            <mxPoint y="1" as="offset" />
          </mxGeometry>
        </mxCell>
        <mxCell id="2I8wKv11GM0MQBxy5YEE-220" value="has" style="rhombus;whiteSpace=wrap;html=1;" vertex="1" parent="WIyWlLk6GJQsqaUBKTNV-1">
          <mxGeometry x="270" y="180" width="60" height="60" as="geometry" />
        </mxCell>
        <mxCell id="2I8wKv11GM0MQBxy5YEE-228" value="" style="edgeStyle=orthogonalEdgeStyle;rounded=0;orthogonalLoop=1;jettySize=auto;html=1;endArrow=none;endFill=0;exitX=0.5;exitY=1;exitDx=0;exitDy=0;" edge="1" parent="WIyWlLk6GJQsqaUBKTNV-1" source="2I8wKv11GM0MQBxy5YEE-264" target="2I8wKv11GM0MQBxy5YEE-219">
          <mxGeometry relative="1" as="geometry">
            <mxPoint x="140" y="70" as="sourcePoint" />
          </mxGeometry>
        </mxCell>
        <mxCell id="2I8wKv11GM0MQBxy5YEE-269" value="&lt;span style=&quot;font-size: 17px;&quot;&gt;1&lt;/span&gt;" style="edgeLabel;html=1;align=center;verticalAlign=middle;resizable=0;points=[];" vertex="1" connectable="0" parent="2I8wKv11GM0MQBxy5YEE-228">
          <mxGeometry x="-0.0489" y="-1" relative="1" as="geometry">
            <mxPoint y="-1" as="offset" />
          </mxGeometry>
        </mxCell>
        <mxCell id="2I8wKv11GM0MQBxy5YEE-229" value="&lt;span style=&quot;font-size: 15px;&quot;&gt;ID&lt;/span&gt;" style="rounded=1;whiteSpace=wrap;html=1;" vertex="1" parent="WIyWlLk6GJQsqaUBKTNV-1">
          <mxGeometry x="90" y="300" width="100" height="40" as="geometry" />
        </mxCell>
        <mxCell id="2I8wKv11GM0MQBxy5YEE-231" value="&lt;span style=&quot;font-size: 15px;&quot;&gt;Email&lt;/span&gt;" style="rounded=1;whiteSpace=wrap;html=1;" vertex="1" parent="WIyWlLk6GJQsqaUBKTNV-1">
          <mxGeometry x="-40" y="120" width="100" height="40" as="geometry" />
        </mxCell>
        <mxCell id="2I8wKv11GM0MQBxy5YEE-232" value="&lt;span style=&quot;font-size: 15px;&quot;&gt;Username&lt;/span&gt;" style="rounded=1;whiteSpace=wrap;html=1;" vertex="1" parent="WIyWlLk6GJQsqaUBKTNV-1">
          <mxGeometry x="200" y="250" width="100" height="40" as="geometry" />
        </mxCell>
        <mxCell id="2I8wKv11GM0MQBxy5YEE-233" value="&lt;span style=&quot;font-size: 15px;&quot;&gt;Password&lt;/span&gt;" style="rounded=1;whiteSpace=wrap;html=1;" vertex="1" parent="WIyWlLk6GJQsqaUBKTNV-1">
          <mxGeometry x="-60" y="190" width="100" height="40" as="geometry" />
        </mxCell>
        <mxCell id="2I8wKv11GM0MQBxy5YEE-238" value="&lt;font style=&quot;font-size: 15px;&quot;&gt;Role&lt;/font&gt;" style="rounded=1;whiteSpace=wrap;html=1;" vertex="1" parent="WIyWlLk6GJQsqaUBKTNV-1">
          <mxGeometry x="890" y="410" width="100" height="40" as="geometry" />
        </mxCell>
        <mxCell id="2I8wKv11GM0MQBxy5YEE-239" value="&lt;font style=&quot;font-size: 15px;&quot;&gt;Company&lt;/font&gt;" style="rounded=1;whiteSpace=wrap;html=1;" vertex="1" parent="WIyWlLk6GJQsqaUBKTNV-1">
          <mxGeometry x="890" y="530" width="100" height="40" as="geometry" />
        </mxCell>
        <mxCell id="2I8wKv11GM0MQBxy5YEE-240" value="&lt;font style=&quot;font-size: 15px;&quot;&gt;Deskripsi&lt;/font&gt;" style="rounded=1;whiteSpace=wrap;html=1;" vertex="1" parent="WIyWlLk6GJQsqaUBKTNV-1">
          <mxGeometry x="910" y="470" width="100" height="40" as="geometry" />
        </mxCell>
        <mxCell id="2I8wKv11GM0MQBxy5YEE-245" value="&lt;span style=&quot;font-size: 15px;&quot;&gt;ID&lt;/span&gt;" style="rounded=1;whiteSpace=wrap;html=1;" vertex="1" parent="WIyWlLk6GJQsqaUBKTNV-1">
          <mxGeometry x="90" y="560" width="100" height="40" as="geometry" />
        </mxCell>
        <mxCell id="2I8wKv11GM0MQBxy5YEE-247" value="&lt;span style=&quot;font-size: 15px;&quot;&gt;Name&lt;/span&gt;" style="rounded=1;whiteSpace=wrap;html=1;" vertex="1" parent="WIyWlLk6GJQsqaUBKTNV-1">
          <mxGeometry x="90" y="380" width="100" height="40" as="geometry" />
        </mxCell>
        <mxCell id="2I8wKv11GM0MQBxy5YEE-250" value="added to" style="rhombus;whiteSpace=wrap;html=1;" vertex="1" parent="WIyWlLk6GJQsqaUBKTNV-1">
          <mxGeometry x="570" y="230" width="60" height="60" as="geometry" />
        </mxCell>
        <mxCell id="2I8wKv11GM0MQBxy5YEE-252" style="edgeStyle=orthogonalEdgeStyle;rounded=0;orthogonalLoop=1;jettySize=auto;html=1;exitX=0;exitY=0.5;exitDx=0;exitDy=0;entryX=1;entryY=0.5;entryDx=0;entryDy=0;endArrow=none;endFill=0;" edge="1" parent="WIyWlLk6GJQsqaUBKTNV-1" source="2I8wKv11GM0MQBxy5YEE-251" target="2I8wKv11GM0MQBxy5YEE-250">
          <mxGeometry relative="1" as="geometry" />
        </mxCell>
        <mxCell id="2I8wKv11GM0MQBxy5YEE-259" value="&lt;span style=&quot;font-size: 17px;&quot;&gt;N&lt;/span&gt;" style="edgeLabel;html=1;align=center;verticalAlign=middle;resizable=0;points=[];" vertex="1" connectable="0" parent="2I8wKv11GM0MQBxy5YEE-252">
          <mxGeometry x="-0.1128" y="1" relative="1" as="geometry">
            <mxPoint as="offset" />
          </mxGeometry>
        </mxCell>
        <mxCell id="2I8wKv11GM0MQBxy5YEE-262" value="" style="edgeStyle=orthogonalEdgeStyle;rounded=0;orthogonalLoop=1;jettySize=auto;html=1;endArrow=none;endFill=0;" edge="1" parent="WIyWlLk6GJQsqaUBKTNV-1" source="2I8wKv11GM0MQBxy5YEE-251" target="2I8wKv11GM0MQBxy5YEE-260">
          <mxGeometry relative="1" as="geometry" />
        </mxCell>
        <mxCell id="2I8wKv11GM0MQBxy5YEE-279" style="edgeStyle=orthogonalEdgeStyle;rounded=0;orthogonalLoop=1;jettySize=auto;html=1;exitX=0.5;exitY=1;exitDx=0;exitDy=0;entryX=0;entryY=0.5;entryDx=0;entryDy=0;endArrow=none;endFill=0;" edge="1" parent="WIyWlLk6GJQsqaUBKTNV-1" source="2I8wKv11GM0MQBxy5YEE-251" target="2I8wKv11GM0MQBxy5YEE-261">
          <mxGeometry relative="1" as="geometry" />
        </mxCell>
        <mxCell id="2I8wKv11GM0MQBxy5YEE-280" style="edgeStyle=orthogonalEdgeStyle;rounded=0;orthogonalLoop=1;jettySize=auto;html=1;exitX=0.75;exitY=0;exitDx=0;exitDy=0;entryX=0;entryY=0.75;entryDx=0;entryDy=0;endArrow=none;endFill=0;" edge="1" parent="WIyWlLk6GJQsqaUBKTNV-1" source="2I8wKv11GM0MQBxy5YEE-281" target="2I8wKv11GM0MQBxy5YEE-270">
          <mxGeometry relative="1" as="geometry">
            <Array as="points">
              <mxPoint x="920" y="50" />
              <mxPoint x="920" y="70" />
              <mxPoint x="1090" y="70" />
              <mxPoint x="1090" y="35" />
            </Array>
          </mxGeometry>
        </mxCell>
        <mxCell id="2I8wKv11GM0MQBxy5YEE-284" value="&lt;span style=&quot;font-size: 17px;&quot;&gt;N&lt;/span&gt;" style="edgeLabel;html=1;align=center;verticalAlign=middle;resizable=0;points=[];" vertex="1" connectable="0" parent="2I8wKv11GM0MQBxy5YEE-280">
          <mxGeometry x="-0.0389" y="-1" relative="1" as="geometry">
            <mxPoint as="offset" />
          </mxGeometry>
        </mxCell>
        <mxCell id="2I8wKv11GM0MQBxy5YEE-251" value="&lt;font style=&quot;font-size: 15px;&quot;&gt;Order&lt;/font&gt;" style="rounded=0;whiteSpace=wrap;html=1;" vertex="1" parent="WIyWlLk6GJQsqaUBKTNV-1">
          <mxGeometry x="760" y="230" width="120" height="60" as="geometry" />
        </mxCell>
        <mxCell id="2I8wKv11GM0MQBxy5YEE-255" style="edgeStyle=orthogonalEdgeStyle;rounded=0;orthogonalLoop=1;jettySize=auto;html=1;exitX=1;exitY=0.5;exitDx=0;exitDy=0;endArrow=none;endFill=0;" edge="1" parent="WIyWlLk6GJQsqaUBKTNV-1" source="2I8wKv11GM0MQBxy5YEE-254">
          <mxGeometry relative="1" as="geometry">
            <mxPoint x="820" y="230" as="targetPoint" />
            <Array as="points">
              <mxPoint x="820" y="70" />
            </Array>
          </mxGeometry>
        </mxCell>
        <mxCell id="2I8wKv11GM0MQBxy5YEE-257" value="&lt;span style=&quot;font-size: 17px;&quot;&gt;N&lt;/span&gt;" style="edgeLabel;html=1;align=center;verticalAlign=middle;resizable=0;points=[];" vertex="1" connectable="0" parent="2I8wKv11GM0MQBxy5YEE-255">
          <mxGeometry x="0.8047" relative="1" as="geometry">
            <mxPoint as="offset" />
          </mxGeometry>
        </mxCell>
        <mxCell id="2I8wKv11GM0MQBxy5YEE-254" value="does" style="rhombus;whiteSpace=wrap;html=1;" vertex="1" parent="WIyWlLk6GJQsqaUBKTNV-1">
          <mxGeometry x="210" y="40" width="60" height="60" as="geometry" />
        </mxCell>
        <mxCell id="2I8wKv11GM0MQBxy5YEE-260" value="&lt;font style=&quot;font-size: 15px;&quot;&gt;ID&lt;/font&gt;" style="rounded=1;whiteSpace=wrap;html=1;" vertex="1" parent="WIyWlLk6GJQsqaUBKTNV-1">
          <mxGeometry x="940" y="240" width="100" height="40" as="geometry" />
        </mxCell>
        <mxCell id="2I8wKv11GM0MQBxy5YEE-261" value="&lt;font style=&quot;font-size: 15px;&quot;&gt;Name&lt;/font&gt;" style="rounded=1;whiteSpace=wrap;html=1;" vertex="1" parent="WIyWlLk6GJQsqaUBKTNV-1">
          <mxGeometry x="900" y="300" width="100" height="40" as="geometry" />
        </mxCell>
        <mxCell id="2I8wKv11GM0MQBxy5YEE-268" style="edgeStyle=orthogonalEdgeStyle;rounded=0;orthogonalLoop=1;jettySize=auto;html=1;exitX=1;exitY=0.5;exitDx=0;exitDy=0;endArrow=none;endFill=0;" edge="1" parent="WIyWlLk6GJQsqaUBKTNV-1" source="2I8wKv11GM0MQBxy5YEE-264">
          <mxGeometry relative="1" as="geometry">
            <mxPoint x="1050" y="19.444444444444343" as="targetPoint" />
          </mxGeometry>
        </mxCell>
        <mxCell id="2I8wKv11GM0MQBxy5YEE-271" value="&lt;span style=&quot;font-size: 17px;&quot;&gt;N&lt;/span&gt;" style="edgeLabel;html=1;align=center;verticalAlign=middle;resizable=0;points=[];" vertex="1" connectable="0" parent="2I8wKv11GM0MQBxy5YEE-268">
          <mxGeometry x="0.8436" y="-1" relative="1" as="geometry">
            <mxPoint y="-1" as="offset" />
          </mxGeometry>
        </mxCell>
        <mxCell id="2I8wKv11GM0MQBxy5YEE-264" value="does" style="rhombus;whiteSpace=wrap;html=1;" vertex="1" parent="WIyWlLk6GJQsqaUBKTNV-1">
          <mxGeometry x="110" y="-10" width="60" height="60" as="geometry" />
        </mxCell>
        <mxCell id="2I8wKv11GM0MQBxy5YEE-276" value="" style="edgeStyle=orthogonalEdgeStyle;rounded=0;orthogonalLoop=1;jettySize=auto;html=1;endArrow=none;endFill=0;" edge="1" parent="WIyWlLk6GJQsqaUBKTNV-1" source="2I8wKv11GM0MQBxy5YEE-270" target="2I8wKv11GM0MQBxy5YEE-274">
          <mxGeometry relative="1" as="geometry" />
        </mxCell>
        <mxCell id="2I8wKv11GM0MQBxy5YEE-277" value="" style="edgeStyle=orthogonalEdgeStyle;rounded=0;orthogonalLoop=1;jettySize=auto;html=1;endArrow=none;endFill=0;" edge="1" parent="WIyWlLk6GJQsqaUBKTNV-1" source="2I8wKv11GM0MQBxy5YEE-270" target="2I8wKv11GM0MQBxy5YEE-275">
          <mxGeometry relative="1" as="geometry" />
        </mxCell>
        <mxCell id="2I8wKv11GM0MQBxy5YEE-270" value="&lt;font style=&quot;font-size: 15px;&quot;&gt;Pembayaran&lt;/font&gt;" style="rounded=0;whiteSpace=wrap;html=1;" vertex="1" parent="WIyWlLk6GJQsqaUBKTNV-1">
          <mxGeometry x="1050" y="-10" width="120" height="60" as="geometry" />
        </mxCell>
        <mxCell id="2I8wKv11GM0MQBxy5YEE-274" value="&lt;font style=&quot;font-size: 15px;&quot;&gt;Name&lt;/font&gt;" style="rounded=1;whiteSpace=wrap;html=1;" vertex="1" parent="WIyWlLk6GJQsqaUBKTNV-1">
          <mxGeometry x="1060" y="-90" width="100" height="40" as="geometry" />
        </mxCell>
        <mxCell id="2I8wKv11GM0MQBxy5YEE-275" value="&lt;font style=&quot;font-size: 15px;&quot;&gt;ID&lt;/font&gt;" style="rounded=1;whiteSpace=wrap;html=1;" vertex="1" parent="WIyWlLk6GJQsqaUBKTNV-1">
          <mxGeometry x="1060" y="90" width="100" height="40" as="geometry" />
        </mxCell>
        <mxCell id="2I8wKv11GM0MQBxy5YEE-282" value="" style="edgeStyle=orthogonalEdgeStyle;rounded=0;orthogonalLoop=1;jettySize=auto;html=1;exitX=0.75;exitY=0;exitDx=0;exitDy=0;entryX=0;entryY=0.75;entryDx=0;entryDy=0;endArrow=none;endFill=0;" edge="1" parent="WIyWlLk6GJQsqaUBKTNV-1" source="2I8wKv11GM0MQBxy5YEE-251" target="2I8wKv11GM0MQBxy5YEE-281">
          <mxGeometry relative="1" as="geometry">
            <mxPoint x="850" y="230" as="sourcePoint" />
            <mxPoint x="1050" y="35" as="targetPoint" />
            <Array as="points">
              <mxPoint x="880" y="230" />
              <mxPoint x="880" y="240" />
              <mxPoint x="920" y="240" />
              <mxPoint x="920" y="80" />
            </Array>
          </mxGeometry>
        </mxCell>
        <mxCell id="2I8wKv11GM0MQBxy5YEE-283" value="&lt;span style=&quot;font-size: 17px;&quot;&gt;N&lt;/span&gt;" style="edgeLabel;html=1;align=center;verticalAlign=middle;resizable=0;points=[];" vertex="1" connectable="0" parent="2I8wKv11GM0MQBxy5YEE-282">
          <mxGeometry x="0.2136" relative="1" as="geometry">
            <mxPoint as="offset" />
          </mxGeometry>
        </mxCell>
        <mxCell id="2I8wKv11GM0MQBxy5YEE-281" value="done for" style="rhombus;whiteSpace=wrap;html=1;" vertex="1" parent="WIyWlLk6GJQsqaUBKTNV-1">
          <mxGeometry x="890" y="40" width="60" height="60" as="geometry" />
        </mxCell>
        <mxCell id="2I8wKv11GM0MQBxy5YEE-287" style="edgeStyle=orthogonalEdgeStyle;rounded=0;orthogonalLoop=1;jettySize=auto;html=1;exitX=0;exitY=0.5;exitDx=0;exitDy=0;endArrow=none;endFill=0;entryX=1;entryY=0.5;entryDx=0;entryDy=0;" edge="1" parent="WIyWlLk6GJQsqaUBKTNV-1" source="2I8wKv11GM0MQBxy5YEE-286" target="2I8wKv11GM0MQBxy5YEE-288">
          <mxGeometry relative="1" as="geometry">
            <mxPoint y="360" as="targetPoint" />
            <Array as="points">
              <mxPoint x="-40" y="360" />
            </Array>
          </mxGeometry>
        </mxCell>
        <mxCell id="2I8wKv11GM0MQBxy5YEE-298" value="&lt;span style=&quot;font-size: 17px;&quot;&gt;N&lt;/span&gt;" style="edgeLabel;html=1;align=center;verticalAlign=middle;resizable=0;points=[];" vertex="1" connectable="0" parent="2I8wKv11GM0MQBxy5YEE-287">
          <mxGeometry x="0.5739" y="4" relative="1" as="geometry">
            <mxPoint y="-4" as="offset" />
          </mxGeometry>
        </mxCell>
        <mxCell id="2I8wKv11GM0MQBxy5YEE-286" value="has" style="rhombus;whiteSpace=wrap;html=1;" vertex="1" parent="WIyWlLk6GJQsqaUBKTNV-1">
          <mxGeometry x="310" y="330" width="60" height="60" as="geometry" />
        </mxCell>
        <mxCell id="2I8wKv11GM0MQBxy5YEE-293" value="" style="edgeStyle=orthogonalEdgeStyle;rounded=0;orthogonalLoop=1;jettySize=auto;html=1;endArrow=none;endFill=0;" edge="1" parent="WIyWlLk6GJQsqaUBKTNV-1" source="2I8wKv11GM0MQBxy5YEE-288" target="2I8wKv11GM0MQBxy5YEE-292">
          <mxGeometry relative="1" as="geometry" />
        </mxCell>
        <mxCell id="2I8wKv11GM0MQBxy5YEE-296" value="&lt;span style=&quot;font-size: 17px;&quot;&gt;N&lt;/span&gt;" style="edgeLabel;html=1;align=center;verticalAlign=middle;resizable=0;points=[];" vertex="1" connectable="0" parent="2I8wKv11GM0MQBxy5YEE-293">
          <mxGeometry x="0.062" relative="1" as="geometry">
            <mxPoint as="offset" />
          </mxGeometry>
        </mxCell>
        <mxCell id="2I8wKv11GM0MQBxy5YEE-288" value="&lt;font style=&quot;font-size: 15px;&quot;&gt;Review&lt;/font&gt;" style="rounded=0;whiteSpace=wrap;html=1;" vertex="1" parent="WIyWlLk6GJQsqaUBKTNV-1">
          <mxGeometry x="-160" y="340" width="120" height="60" as="geometry" />
        </mxCell>
        <mxCell id="2I8wKv11GM0MQBxy5YEE-292" value="does" style="rhombus;whiteSpace=wrap;html=1;" vertex="1" parent="WIyWlLk6GJQsqaUBKTNV-1">
          <mxGeometry x="-130" y="240" width="60" height="60" as="geometry" />
        </mxCell>
        <mxCell id="2I8wKv11GM0MQBxy5YEE-300" value="" style="edgeStyle=orthogonalEdgeStyle;rounded=0;orthogonalLoop=1;jettySize=auto;html=1;endArrow=none;endFill=0;" edge="1" parent="WIyWlLk6GJQsqaUBKTNV-1" source="2I8wKv11GM0MQBxy5YEE-299" target="2I8wKv11GM0MQBxy5YEE-288">
          <mxGeometry relative="1" as="geometry" />
        </mxCell>
        <mxCell id="2I8wKv11GM0MQBxy5YEE-299" value="&lt;span style=&quot;font-size: 15px;&quot;&gt;ID&lt;/span&gt;" style="rounded=1;whiteSpace=wrap;html=1;" vertex="1" parent="WIyWlLk6GJQsqaUBKTNV-1">
          <mxGeometry x="-150" y="430" width="100" height="40" as="geometry" />
        </mxCell>
        <mxCell id="2I8wKv11GM0MQBxy5YEE-302" value="" style="edgeStyle=orthogonalEdgeStyle;rounded=0;orthogonalLoop=1;jettySize=auto;html=1;endArrow=none;endFill=0;" edge="1" parent="WIyWlLk6GJQsqaUBKTNV-1" source="2I8wKv11GM0MQBxy5YEE-301" target="2I8wKv11GM0MQBxy5YEE-288">
          <mxGeometry relative="1" as="geometry" />
        </mxCell>
        <mxCell id="2I8wKv11GM0MQBxy5YEE-301" value="&lt;span style=&quot;font-size: 15px;&quot;&gt;Name&lt;/span&gt;" style="rounded=1;whiteSpace=wrap;html=1;" vertex="1" parent="WIyWlLk6GJQsqaUBKTNV-1">
          <mxGeometry x="-300" y="350" width="100" height="40" as="geometry" />
        </mxCell>
      </root>
    </mxGraphModel>
  </diagram>
</mxfile>
